# xmcd
#
# Track frame offsets:
#	183
#	43233
#	81888
#	117208
#	166083
#	177948
#	187370
#	197398
#	207095
#	215668
#	225788
#	236590
#	245185
#	260290
#	273148
# Disc length: 3736 seconds
# Revision: 1
# Processed by: cddbd v1.5.2PL0 Copyright (c) Steve Scherf et al.
#
# Submitted via: libkcddb 0.31
#
DISCID=ce0e960f
DTITLE=Jacques Ibert - Symphonie Concertante pour Hautbois - Capriccio - Le Jardinier de Samos - Suite Symphonique "Paris"
DYEAR=1990
DGENRE=Symphonique
TTITLE0=Symphonie Concertante pour Hautbois (1948-1949) - 1er mouvement
TTITLE1=Symphonie Concertante pour Hautbois (1948-1949) - 2ème mouvement
TTITLE2=Symphonie Concertante pour Hautbois (1948-1949) - 3ème mouvement
TTITLE3=Capriccio pour cordes, petite harmonie et harpe (1937-38)
TTITLE4=Le Jardinier de Samos (1924-1925) - Ouverture
TTITLE5=Le Jardinier de Samos (1924-1925) - Air de danse
TTITLE6=Le Jardinier de Samos (1924-1925) - Prélude du 2ème acte
TTITLE7=Le Jardinier de Samos (1924-1925) - Prélude du 4ème acte
TTITLE8=Le Jardinier de Samos (1924-1925) - Prélude du 5ème acte
TTITLE9=Suite Symphonique "Paris" (1932) - Le métro
TTITLE10=Suite Symphonique "Paris" (1932) - Faubourgs
TTITLE11=Suite Symphonique "Paris" (1932) - La mosquée de Paris
TTITLE12=Suite Symphonique "Paris" (1932) - Restaurant au Bois de Boulogne
TTITLE13=Suite Symphonique "Paris" (1932) - Le Paquebot "Ile de France"
TTITLE14=Suite Symphonique "Paris" (1932) - Parade Foraine
EXTD=
EXTT0=
EXTT1=
EXTT2=
EXTT3=
EXTT4=
EXTT5=
EXTT6=
EXTT7=
EXTT8=
EXTT9=
EXTT10=
EXTT11=
EXTT12=
EXTT13=
EXTT14=
PLAYORDER=
